<svg width="20" height="20" viewBox="0 0 20 20" fill="none" xmlns="http://www.w3.org/2000/svg">
<path d="M10.0001 19.0277C5.01409 19.0277 0.972351 14.986 0.972351 9.99995C0.972351 5.0139 5.01409 0.972168 10.0001 0.972168C14.9862 0.972168 19.0279 5.0139 19.0279 9.99995C19.0279 14.986 14.9862 19.0277 10.0001 19.0277ZM5.48624 14.5138H7.2918C7.2918 13.7955 7.57714 13.1067 8.08505 12.5988C8.59296 12.0908 9.28183 11.8055 10.0001 11.8055C10.7184 11.8055 11.4073 12.0908 11.9152 12.5988C12.4231 13.1067 12.7085 13.7955 12.7085 14.5138H14.514C14.514 13.3167 14.0384 12.1686 13.1919 11.322C12.3454 10.4755 11.1973 9.99995 10.0001 9.99995C8.80297 9.99995 7.65485 10.4755 6.80833 11.322C5.96181 12.1686 5.48624 13.3167 5.48624 14.5138ZM6.38902 9.09717C6.74817 9.09717 7.0926 8.9545 7.34656 8.70054C7.60051 8.44659 7.74318 8.10215 7.74318 7.743C7.74318 7.38385 7.60051 7.03942 7.34656 6.78546C7.0926 6.53151 6.74817 6.38883 6.38902 6.38883C6.02987 6.38883 5.68543 6.53151 5.43148 6.78546C5.17752 7.03942 5.03485 7.38385 5.03485 7.743C5.03485 8.10215 5.17752 8.44659 5.43148 8.70054C5.68543 8.9545 6.02987 9.09717 6.38902 9.09717ZM13.6112 9.09717C13.9704 9.09717 14.3148 8.9545 14.5688 8.70054C14.8227 8.44659 14.9654 8.10215 14.9654 7.743C14.9654 7.38385 14.8227 7.03942 14.5688 6.78546C14.3148 6.53151 13.9704 6.38883 13.6112 6.38883C13.2521 6.38883 12.9077 6.53151 12.6537 6.78546C12.3997 7.03942 12.2571 7.38385 12.2571 7.743C12.2571 8.10215 12.3997 8.44659 12.6537 8.70054C12.9077 8.9545 13.2521 9.09717 13.6112 9.09717Z" fill="#DE1E3A"/>
</svg>
