<svg width="20" height="20" viewBox="0 0 20 20" fill="none" xmlns="http://www.w3.org/2000/svg">
<path d="M9.99998 19.1667C4.93723 19.1667 0.833313 15.0628 0.833313 10C0.833313 4.93729 4.93723 0.833374 9.99998 0.833374C15.0627 0.833374 19.1666 4.93729 19.1666 10C19.1666 15.0628 15.0627 19.1667 9.99998 19.1667ZM5.41665 10.9167C5.41665 12.1323 5.89953 13.2981 6.75907 14.1576C7.61862 15.0172 8.7844 15.5 9.99998 15.5C11.2156 15.5 12.3813 15.0172 13.2409 14.1576C14.1004 13.2981 14.5833 12.1323 14.5833 10.9167H12.75C12.75 11.6461 12.4602 12.3455 11.9445 12.8613C11.4288 13.377 10.7293 13.6667 9.99998 13.6667C9.27063 13.6667 8.57116 13.377 8.05544 12.8613C7.53971 12.3455 7.24998 11.6461 7.24998 10.9167H5.41665ZM6.33331 9.08337C6.69799 9.08337 7.04772 8.93851 7.30558 8.68065C7.56345 8.42278 7.70831 8.07305 7.70831 7.70837C7.70831 7.3437 7.56345 6.99396 7.30558 6.7361C7.04772 6.47824 6.69799 6.33337 6.33331 6.33337C5.96864 6.33337 5.6189 6.47824 5.36104 6.7361C5.10318 6.99396 4.95831 7.3437 4.95831 7.70837C4.95831 8.07305 5.10318 8.42278 5.36104 8.68065C5.6189 8.93851 5.96864 9.08337 6.33331 9.08337ZM13.6666 9.08337C14.0313 9.08337 14.3811 8.93851 14.6389 8.68065C14.8968 8.42278 15.0416 8.07305 15.0416 7.70837C15.0416 7.3437 14.8968 6.99396 14.6389 6.7361C14.3811 6.47824 14.0313 6.33337 13.6666 6.33337C13.302 6.33337 12.9522 6.47824 12.6944 6.7361C12.4365 6.99396 12.2916 7.3437 12.2916 7.70837C12.2916 8.07305 12.4365 8.42278 12.6944 8.68065C12.9522 8.93851 13.302 9.08337 13.6666 9.08337Z" fill="#00B533"/>
</svg>
