<svg width="20" height="20" viewBox="0 0 20 20" fill="none" xmlns="http://www.w3.org/2000/svg">
<path d="M9.99848 19.0286C5.01244 19.0286 0.970703 14.9868 0.970703 10.0008C0.970703 5.01476 5.01244 0.973022 9.99848 0.973022C14.9845 0.973022 19.0263 5.01476 19.0263 10.0008C19.0263 14.9868 14.9845 19.0286 9.99848 19.0286ZM6.38737 11.8064V13.6119H13.6096V11.8064H6.38737ZM6.38737 9.09802C6.74652 9.09802 7.09095 8.95535 7.34491 8.7014C7.59887 8.44744 7.74154 8.103 7.74154 7.74386C7.74154 7.38471 7.59887 7.04027 7.34491 6.78632C7.09095 6.53236 6.74652 6.38969 6.38737 6.38969C6.02822 6.38969 5.68378 6.53236 5.42983 6.78632C5.17587 7.04027 5.0332 7.38471 5.0332 7.74386C5.0332 8.103 5.17587 8.44744 5.42983 8.7014C5.68378 8.95535 6.02822 9.09802 6.38737 9.09802ZM13.6096 9.09802C13.9687 9.09802 14.3132 8.95535 14.5671 8.7014C14.8211 8.44744 14.9638 8.103 14.9638 7.74386C14.9638 7.38471 14.8211 7.04027 14.5671 6.78632C14.3132 6.53236 13.9687 6.38969 13.6096 6.38969C13.2504 6.38969 12.906 6.53236 12.6521 6.78632C12.3981 7.04027 12.2554 7.38471 12.2554 7.74386C12.2554 8.103 12.3981 8.44744 12.6521 8.7014C12.906 8.95535 13.2504 9.09802 13.6096 9.09802Z" fill="#FFB436"/>
</svg>
