<svg width="20" height="20" viewBox="0 0 20 20" fill="none" xmlns="http://www.w3.org/2000/svg">
<path d="M9.99848 19.0285C5.01244 19.0285 0.970703 14.9867 0.970703 10.0007C0.970703 5.01464 5.01244 0.9729 9.99848 0.9729C14.9845 0.9729 19.0263 5.01464 19.0263 10.0007C19.0263 14.9867 14.9845 19.0285 9.99848 19.0285ZM6.38737 11.8062V13.6118H13.6096V11.8062H6.38737ZM6.38737 9.0979C6.74652 9.0979 7.09095 8.95523 7.34491 8.70127C7.59887 8.44732 7.74154 8.10288 7.74154 7.74373C7.74154 7.38459 7.59887 7.04015 7.34491 6.78619C7.09095 6.53224 6.74652 6.38957 6.38737 6.38957C6.02822 6.38957 5.68378 6.53224 5.42983 6.78619C5.17587 7.04015 5.0332 7.38459 5.0332 7.74373C5.0332 8.10288 5.17587 8.44732 5.42983 8.70127C5.68378 8.95523 6.02822 9.0979 6.38737 9.0979ZM13.6096 9.0979C13.9687 9.0979 14.3132 8.95523 14.5671 8.70127C14.8211 8.44732 14.9638 8.10288 14.9638 7.74373C14.9638 7.38459 14.8211 7.04015 14.5671 6.78619C14.3132 6.53224 13.9687 6.38957 13.6096 6.38957C13.2504 6.38957 12.906 6.53224 12.6521 6.78619C12.3981 7.04015 12.2554 7.38459 12.2554 7.74373C12.2554 8.10288 12.3981 8.44732 12.6521 8.70127C12.906 8.95523 13.2504 9.0979 13.6096 9.0979Z" fill="#FFB436"/>
</svg>
