<svg width="200" height="24" viewBox="0 0 200 24" fill="none" xmlns="http://www.w3.org/2000/svg">
<path d="M12.0002 18.26L4.94716 22.208L6.52216 14.28L0.587158 8.792L8.61416 7.84L12.0002 0.5L15.3862 7.84L23.4132 8.792L17.4782 14.28L19.0532 22.208L12.0002 18.26Z" fill="#FFB436"/>
<path d="M100 18.26L92.9472 22.208L94.5222 14.28L88.5872 8.792L96.6142 7.84L100 0.5L103.386 7.84L111.413 8.792L105.478 14.28L107.053 22.208L100 18.26Z" fill="#FFB436"/>
<path d="M56.0002 18.26L48.9472 22.208L50.5222 14.28L44.5872 8.792L52.6142 7.84L56.0002 0.5L59.3862 7.84L67.4132 8.792L61.4782 14.28L63.0532 22.208L56.0002 18.26Z" fill="#FFB436"/>
<path d="M144 18.26L136.947 22.208L138.522 14.28L132.587 8.792L140.614 7.84L144 0.5L147.386 7.84L155.413 8.792L149.478 14.28L151.053 22.208L144 18.26Z" fill="#D8D8D8" fill-opacity="0.46"/>
<path d="M188 18.26L180.947 22.208L182.522 14.28L176.587 8.792L184.614 7.84L188 0.5L191.386 7.84L199.413 8.792L193.478 14.28L195.053 22.208L188 18.26Z" fill="#D8D8D8" fill-opacity="0.46"/>
</svg>
