<svg width="18" height="16" viewBox="0 0 18 16" fill="none" xmlns="http://www.w3.org/2000/svg">
<path d="M0.666749 5.49501C0.66631 4.83851 0.795375 4.18837 1.04655 3.58183C1.29773 2.97528 1.66609 2.42424 2.13054 1.96026C2.59499 1.49628 3.14639 1.12847 3.75319 0.877898C4.35999 0.627326 5.01025 0.498911 5.66675 0.500007H12.3334C15.0942 0.500007 17.3334 2.74584 17.3334 5.49501V15.5H5.66675C2.90592 15.5 0.666749 13.2542 0.666749 10.505V5.49501ZM15.6667 13.8333V5.49501C15.6645 4.61209 15.3125 3.76604 14.6877 3.14219C14.0629 2.51834 13.2163 2.16755 12.3334 2.16667H5.66675C5.22912 2.16558 4.79558 2.25088 4.391 2.4177C3.98641 2.58451 3.61873 2.82955 3.30905 3.13877C2.99937 3.44799 2.75377 3.8153 2.58635 4.21963C2.41893 4.62397 2.33298 5.05738 2.33342 5.49501V10.505C2.33562 11.3879 2.68768 12.234 3.31246 12.8578C3.93725 13.4817 4.78383 13.8325 5.66675 13.8333H15.6667ZM10.6667 7.16667H12.3334V8.83334H10.6667V7.16667ZM5.66675 7.16667H7.33341V8.83334H5.66675V7.16667Z" fill="black"/>
</svg>
