<svg width="18" height="20" viewBox="0 0 18 20" fill="none" xmlns="http://www.w3.org/2000/svg">
<path d="M1.06178 14.5833C0.674281 13.9132 0.373059 13.1968 0.165283 12.4511C0.617482 12.2211 0.997245 11.8705 1.26256 11.4381C1.52788 11.0057 1.6684 10.5083 1.66859 10.001C1.66878 9.49365 1.52863 8.99616 1.26364 8.56354C0.998644 8.13092 0.619143 7.78004 0.167117 7.54971C0.581483 6.05141 1.37045 4.68325 2.4597 3.57413C2.88512 3.85071 3.37877 4.00419 3.88601 4.01759C4.39326 4.03099 4.89432 3.90379 5.33375 3.65006C5.77318 3.39632 6.13384 3.02596 6.37582 2.57995C6.61779 2.13394 6.73165 1.62967 6.70478 1.12296C8.21005 0.733947 9.78958 0.734578 11.2945 1.12479C11.2679 1.63149 11.382 2.13568 11.6241 2.58157C11.8663 3.02745 12.2271 3.39764 12.6666 3.65118C13.1061 3.90472 13.6072 4.03171 14.1145 4.01812C14.6217 4.00452 15.1152 3.85085 15.5405 3.57413C16.0713 4.11496 16.5424 4.73004 16.9384 5.41663C17.3354 6.10321 17.6324 6.81913 17.8349 7.54879C17.3828 7.77879 17.003 8.12939 16.7377 8.56181C16.4724 8.99423 16.3318 9.49161 16.3316 9.99894C16.3315 10.5063 16.4716 11.0038 16.7366 11.4364C17.0016 11.869 17.3811 12.2199 17.8331 12.4502C17.4187 13.9485 16.6298 15.3167 15.5405 16.4258C15.1151 16.1492 14.6215 15.9957 14.1142 15.9823C13.607 15.9689 13.1059 16.0961 12.6665 16.3499C12.2271 16.6036 11.8664 16.974 11.6244 17.42C11.3824 17.866 11.2686 18.3702 11.2954 18.877C9.79018 19.266 8.21066 19.2653 6.7057 18.8751C6.73233 18.3684 6.61825 17.8642 6.37609 17.4184C6.13392 16.9725 5.77312 16.6023 5.33361 16.3487C4.89409 16.0952 4.393 15.9682 3.88578 15.9818C3.37856 15.9954 2.885 16.1491 2.4597 16.4258C1.91794 15.873 1.44825 15.2539 1.06178 14.5833ZM6.25012 14.763C7.22694 15.3264 7.96139 16.2306 8.31262 17.3021C8.77003 17.3452 9.22928 17.3461 9.6867 17.303C10.0382 16.2313 10.7729 15.3271 11.7501 14.7639C12.7266 14.1989 13.8773 14.0145 14.9814 14.246C15.2472 13.872 15.4764 13.4732 15.667 13.0561C14.9148 12.2159 14.4993 11.1277 14.5001 9.99996C14.5001 8.84496 14.931 7.76604 15.667 6.94379C15.475 6.52685 15.2449 6.12854 14.9795 5.75396C13.8761 5.98524 12.7262 5.80115 11.7501 5.23696C10.7733 4.67355 10.0388 3.76936 9.68762 2.69779C9.2302 2.65471 8.77095 2.65379 8.31353 2.69688C7.96208 3.76859 7.22729 4.67281 6.25012 5.23604C5.27367 5.801 4.12297 5.98544 3.01887 5.75396C2.75355 6.12822 2.52399 6.52658 2.3332 6.94379C3.08539 7.78397 3.50093 8.87227 3.50012 9.99996C3.50012 11.155 3.06928 12.2339 2.3332 13.0561C2.52522 13.4731 2.75536 13.8714 3.0207 14.246C4.12411 14.0147 5.27406 14.1988 6.25012 14.763ZM9.00012 12.75C8.27077 12.75 7.5713 12.4602 7.05557 11.9445C6.53985 11.4288 6.25012 10.7293 6.25012 9.99996C6.25012 9.27061 6.53985 8.57114 7.05557 8.05542C7.5713 7.53969 8.27077 7.24996 9.00012 7.24996C9.72946 7.24996 10.4289 7.53969 10.9447 8.05542C11.4604 8.57114 11.7501 9.27061 11.7501 9.99996C11.7501 10.7293 11.4604 11.4288 10.9447 11.9445C10.4289 12.4602 9.72946 12.75 9.00012 12.75ZM9.00012 10.9166C9.24323 10.9166 9.47639 10.82 9.6483 10.6481C9.8202 10.4762 9.91678 10.2431 9.91678 9.99996C9.91678 9.75684 9.8202 9.52369 9.6483 9.35178C9.47639 9.17987 9.24323 9.08329 9.00012 9.08329C8.757 9.08329 8.52384 9.17987 8.35193 9.35178C8.18003 9.52369 8.08345 9.75684 8.08345 9.99996C8.08345 10.2431 8.18003 10.4762 8.35193 10.6481C8.52384 10.82 8.757 10.9166 9.00012 10.9166Z" fill="black"/>
</svg>
