<svg width="20" height="18" viewBox="0 0 20 18" fill="none" xmlns="http://www.w3.org/2000/svg">
<path d="M1.75004 0.75H18.25C18.4932 0.75 18.7263 0.846577 18.8982 1.01849C19.0701 1.19039 19.1667 1.42355 19.1667 1.66667V16.3333C19.1667 16.5764 19.0701 16.8096 18.8982 16.9815C18.7263 17.1534 18.4932 17.25 18.25 17.25H1.75004C1.50693 17.25 1.27377 17.1534 1.10186 16.9815C0.929951 16.8096 0.833374 16.5764 0.833374 16.3333V1.66667C0.833374 1.42355 0.929951 1.19039 1.10186 1.01849C1.27377 0.846577 1.50693 0.75 1.75004 0.75ZM2.66671 2.58333V15.4167H17.3334V2.58333H2.66671ZM5.41671 9.91667H7.25004V13.5833H5.41671V9.91667ZM9.08337 4.41667H10.9167V13.5833H9.08337V4.41667ZM12.75 7.16667H14.5834V13.5833H12.75V7.16667Z" fill="#00B533"/>
</svg>
